<?xml version="1.0" encoding="utf-8"?>
<!-- Generator: Adobe Illustrator 25.0.0, SVG Export Plug-In . SVG Version: 6.00 Build 0)  -->
<svg version="1.1" id="heart_black" xmlns="http://www.w3.org/2000/svg" xmlns:xlink="http://www.w3.org/1999/xlink" x="0px"
	 y="0px" viewBox="0 0 19.1 16.7" style="enable-background:new 0 0 19.1 16.7;" xml:space="preserve">
<style type="text/css">
	.st0{fill:#F79322;}
</style>
<path id="heart-solid" class="st0" d="M17.1,1.3c-2-1.6-5-1.4-6.8,0.5L9.6,2.6L8.8,1.8C7.1-0.1,4.1-0.3,2.1,1.3
	c-2.2,1.9-2.4,5.2-0.5,7.4c0.1,0.1,0.1,0.1,0.2,0.2l7,7.3c0.4,0.5,1.2,0.5,1.6,0c0,0,0,0,0,0l7-7.3c2-2.1,1.9-5.4-0.2-7.4
	C17.2,1.5,17.1,1.4,17.1,1.3L17.1,1.3z"/>
</svg>
