<?xml version="1.0" encoding="utf-8"?>
<!-- Generator: Adobe Illustrator 25.0.0, SVG Export Plug-In . SVG Version: 6.00 Build 0)  -->
<svg version="1.1" id="Layer_1" xmlns="http://www.w3.org/2000/svg" xmlns:xlink="http://www.w3.org/1999/xlink" x="0px" y="0px"
	 viewBox="0 0 1985.64 1544.16" style="enable-background:new 0 0 1985.64 1544.16;" xml:space="preserve">
<style type="text/css">
	.st0{fill:#FFFFFF;}
	.st1{fill:#404040;}
	.st2{fill:#FFD70D;}
	.st3{fill:none;stroke:#000000;stroke-width:0.5;}
</style>
<g>
	<path class="st0" d="M515.13,483.86l204.07,361.4l-58.68-361.4H769.1L866,1083.93H757.45L558.97,754l53.16,329.93H504.13
		l-97.44-600.07H515.13z"/>
	<path class="st0" d="M914.81,483.86l97.63,600.07H893.86l-97.43-600.07H914.81z"/>
	<path class="st0" d="M1578.96,1083.93l-18.09-111.42H1425.7l-21.26-135.29h110.94l-18.09-111.42h-111.65l-21.19-130.52h135.17
		l-18.04-111.42h-351.52l-26.44,269.73l-43.8-269.73H941.17l96.84,600.1l118.51-1.26l-47.98-298.8l138.23,300.03H1578.96z
		 M1245.65,534.45l79.72,449.75l-103.81-223.38L1245.65,534.45z"/>
</g>
</svg>
