<?xml version="1.0" encoding="utf-8"?>
<!-- Generator: Adobe Illustrator 25.0.0, SVG Export Plug-In . SVG Version: 6.00 Build 0)  -->
<svg version="1.1" id="Layer_1" xmlns="http://www.w3.org/2000/svg" xmlns:xlink="http://www.w3.org/1999/xlink" x="0px" y="0px"
	 viewBox="0 0 1172.3 600.1" style="enable-background:new 0 0 1172.3 600.1;" xml:space="preserve">
<style type="text/css">
	.st0{fill:#F79322;}
</style>
<g>
	<path class="st0" d="M108.4,0l204.1,361.4L253.8,0h108.6l96.9,600.1H350.8L152.3,270.1l53.2,329.9h-108L0,0L108.4,0L108.4,0z"/>
	<path class="st0" d="M508.1,0l97.6,600.1H487.2L389.7,0L508.1,0L508.1,0z"/>
	<path class="st0" d="M1172.3,600.1l-18.1-111.4H1019l-21.3-135.3h110.9l-18.1-111.4H978.9l-21.2-130.5h135.2L1074.9,0H723.4
		l-26.4,269.7L653.1,0H534.5l96.8,600.1l118.5-1.3l-48-298.8l138.2,300H1172.3z M839,50.6l79.7,449.8L814.9,277L839,50.6z"/>
</g>
</svg>
